<svg width="214" height="201" viewBox="0 0 214 201" fill="none" xmlns="http://www.w3.org/2000/svg">
<g clip-path="url(#clip0)">
<path d="M123.071 46.9582C123.038 47.1572 123.004 47.3563 122.973 47.554C122.862 47.1932 122.796 46.81 122.629 46.4771C121.365 43.9519 120.099 41.4261 118.799 38.9199C113.201 28.1317 105.076 19.9383 93.8218 15.0617C84.2629 10.9198 74.4304 10.1814 64.4081 13.1209C50.2626 17.2687 32.4873 31.6498 30.1992 55.5077C29.3354 64.5104 30.2908 73.3466 32.3874 82.0972C35.5271 95.2053 40.8493 107.467 47.0505 119.385C57.23 138.947 69.8751 156.912 83.0465 174.538C83.4583 175.09 83.8199 175.036 84.3575 174.855C100.574 169.431 116.621 163.557 132.141 156.364C144.882 150.457 157.207 143.803 168.556 135.483C177.233 129.122 185.131 121.962 191.368 113.127C195.698 106.995 198.895 100.341 200.474 92.9711C202.364 84.1492 201.679 75.4553 198.794 66.9455C193.105 50.1672 181.44 40.1621 163.964 37.1562C152.642 35.2093 141.972 37.5628 131.867 42.8293C128.998 44.3236 126.007 45.5879 123.071 46.9582Z" fill="#F2C8C9"/>
<path d="M123.071 46.9582C126.007 45.5879 128.998 44.3236 131.867 42.8293C141.972 37.5628 152.642 35.2093 163.964 37.1562C181.44 40.1621 193.105 50.1672 198.793 66.9475C201.678 75.4573 202.365 84.1518 200.474 92.973C198.895 100.343 195.696 106.995 191.368 113.129C185.13 121.964 177.23 129.123 168.555 135.485C157.206 143.805 144.881 150.459 132.14 156.366C116.62 163.559 100.575 169.434 84.3569 174.857C83.8199 175.036 83.4583 175.09 83.0459 174.54C69.8745 156.914 57.2294 138.949 47.0499 119.387C40.8467 107.468 35.5265 95.2073 32.3868 82.0992C30.2908 73.3466 29.3348 64.5123 30.1986 55.5096C32.4873 31.6498 50.2626 17.2687 64.4081 13.1209C74.4304 10.1814 84.2649 10.9204 93.8218 15.0617C105.078 19.9389 113.201 28.1317 118.799 38.9199C120.099 41.4261 121.365 43.9519 122.629 46.4771C122.796 46.81 122.859 47.1945 122.973 47.554C123.006 47.3569 123.039 47.1578 123.071 46.9582Z" fill="#F2C8C9"/>
<path d="M83.8534 70.5389C83.3578 72.1323 82.3189 73.6388 80.7398 75.0551C79.1582 76.4727 77.2536 77.5414 75.0207 78.2639C72.7879 78.9864 70.6478 79.2086 68.5953 78.9331C66.7733 80.8375 65.4725 82.1611 64.6969 82.9048L63.8271 83.6582C67.1899 85.6892 69.7806 87.9921 71.6014 90.5674C72.525 91.8786 72.9871 93.2795 72.9887 94.7662C72.9939 95.5304 72.917 96.161 72.7632 96.6553C72.6095 97.1497 72.3827 97.5371 72.0855 97.8162C71.7864 98.0947 71.4881 98.259 71.1912 98.3071C70.8943 98.3551 70.6902 98.3629 70.5795 98.3285C70.4688 98.294 70.4275 98.2315 70.4563 98.139C70.4851 98.0464 70.6738 97.8091 71.0251 97.4259C71.3763 97.0426 71.6447 96.5493 71.8328 95.9447C72.0209 95.34 72.1006 94.6304 72.0715 93.8177C72.0424 93.0051 71.7734 92.1827 71.2646 91.3504C70.7558 90.5182 69.9664 89.6397 68.8926 88.7138C67.8187 87.7879 66.8631 87.0673 66.0247 86.5559C65.1862 86.0445 64.0477 85.4031 62.6125 84.6348C60.3703 86.3286 58.2786 87.3154 56.3355 87.5945C55.1694 87.774 54.1965 87.7435 53.4155 87.5006C52.6345 87.2577 51.9888 86.8862 51.4786 86.3862C50.59 85.5481 50.3086 84.6052 50.6333 83.5613C50.958 82.5174 51.9329 81.8162 53.5562 81.457C55.4031 81.0271 57.6615 81.2262 60.3288 82.0559C61.2858 82.3536 62.1272 82.6952 62.8544 83.0834C64.0817 82.0589 65.5968 80.5904 67.4009 78.6804C67.2902 78.6459 67.1894 78.6145 67.0964 78.5856C65.9378 78.2252 64.9222 77.6976 64.0491 77.0048C63.1759 76.312 62.5474 75.544 62.1634 74.7009C61.658 73.5998 61.5745 72.5088 61.9108 71.4275C62.0873 70.8603 62.4208 70.29 62.9107 69.7188C63.4007 69.1475 64.2431 68.6773 65.4391 68.3041C66.6346 67.9328 68.0401 67.8062 69.6566 67.9288C69.913 67.9481 70.1233 67.9833 70.2894 68.0349C70.4555 68.0866 70.5422 68.1633 70.549 68.2669C70.5578 68.3712 70.4569 68.4305 70.2504 68.4462C70.0438 68.4619 69.8151 68.4512 69.5642 68.4142C68.7445 68.2608 67.9269 68.2959 67.1094 68.5255C65.6989 68.912 64.5213 69.8115 63.5766 71.2242C63.352 71.5561 63.1869 71.8914 63.0816 72.2302C62.9762 72.569 62.9126 72.9963 62.8949 73.5136C62.8751 74.0302 62.9974 74.6061 63.2663 75.2406C63.5326 75.8764 63.9964 76.4073 64.6615 76.8346C65.3247 77.2612 65.9281 77.5591 66.4719 77.7282C67.0136 77.8967 67.5244 78.0254 68.0003 78.1129L72.1747 72.9611C75.0799 69.3242 77.8039 67.3784 80.3446 67.1232C81.0079 67.0681 81.6181 67.1283 82.1796 67.303C82.7412 67.4776 83.2173 67.8223 83.6126 68.3363C84.0079 68.8502 84.1434 69.3697 84.0211 69.8955C83.9722 70.1222 83.9165 70.3361 83.8534 70.5389ZM61.5897 84.1374C60.7506 83.656 59.8531 83.2645 58.8981 82.9675C57.9411 82.6698 56.9155 82.502 55.818 82.4609C53.5314 82.3523 52.0471 82.746 51.3662 83.6381C51.2361 83.7985 51.1446 83.9601 51.0932 84.1256C50.9449 84.6022 51.0866 85.074 51.5168 85.5383C51.9471 86.0026 52.4753 86.3333 53.1001 86.5276C53.9642 86.7964 54.9775 86.8502 56.1361 86.6879C57.8899 86.432 59.7069 85.5822 61.5897 84.1374ZM82.6868 70.2041C82.9031 69.5089 82.6892 69.06 82.0466 68.8601C81.1094 68.5686 79.7149 69.0291 77.865 70.2423C76.4121 71.2182 74.9154 72.4743 73.3777 74.0158C71.84 75.5572 70.4511 76.9894 69.2118 78.3105C71.9449 78.5384 74.6834 77.8566 77.4261 76.2687C80.1688 74.6809 81.9228 72.6602 82.6868 70.2041Z" fill="white"/>
<path d="M80.1276 81.7361C81.4702 82.1537 81.8802 83.2058 81.3558 84.8918C81.1162 85.6619 80.6585 86.4224 79.9793 87.1767C79.0926 88.2078 77.9857 89.0473 76.6535 89.6979C76.75 90.2312 77.11 90.5937 77.7368 90.7887C78.2331 90.9431 78.7789 90.8407 79.3756 90.4841C80.1037 90.0884 80.6547 89.7112 81.0275 89.3562C81.4003 89.0013 81.673 88.7383 81.8462 88.5718C82.0194 88.4054 82.2518 88.1601 82.5428 87.8381C82.8339 87.516 83.0117 87.3207 83.073 87.2491C83.1363 87.178 83.2125 87.1564 83.3054 87.1853C83.4948 87.2247 83.5681 87.3167 83.5222 87.4644C83.505 87.5195 83.467 87.579 83.4068 87.6402L83.1212 87.9726C82.9308 88.1942 82.7908 88.3515 82.7011 88.4446C82.6115 88.5377 82.4533 88.7045 82.2287 88.9457C82.002 89.1863 81.8136 89.3739 81.6613 89.508C81.509 89.6421 81.3025 89.8176 81.0428 90.0392C80.781 90.2603 80.5588 90.4309 80.3689 90.5533C80.179 90.6757 79.952 90.806 79.6879 90.9441C79.4237 91.0823 79.1815 91.1776 78.9633 91.2307C78.4169 91.3632 77.9435 91.365 77.5382 91.2389C76.7849 91.0046 76.2698 90.583 75.9949 89.9747C74.955 90.3339 74.0772 90.4021 73.3595 90.1789C72.0169 89.7613 71.6068 88.7092 72.1313 87.0232C72.3708 86.2531 72.8286 85.4925 73.5078 84.7382C74.4583 83.6276 75.5741 82.7801 76.856 82.1938C78.1352 81.6089 79.226 81.4556 80.1276 81.7361ZM80.1668 82.6836C79.6705 82.5293 78.979 82.6749 78.0936 83.1231C77.2081 83.5714 76.3218 84.2807 75.435 85.2491C74.38 86.3682 73.7233 87.3499 73.4617 88.1909C73.1995 89.0339 73.3907 89.5556 74.0333 89.7555C74.492 89.8982 75.0853 89.8106 75.8085 89.4933C75.645 88.9802 75.6383 88.4856 75.7866 88.009C76.0692 87.2328 76.5121 86.9386 77.1191 87.1274C77.3584 87.2018 77.5303 87.346 77.6351 87.5601C77.7398 87.7741 77.7724 87.9484 77.7295 88.0862C77.6866 88.2241 77.6247 88.3604 77.5418 88.4945C77.9963 88.1347 78.557 87.5941 79.2245 86.8772C79.9737 86.0863 80.4899 85.2424 80.7693 84.3442C81.0474 83.4501 80.845 82.8946 80.1668 82.6836Z" fill="white"/>
<path d="M91.6782 85.3592L91.386 85.8105C89.5427 88.432 88.0156 90.2878 86.8087 91.3791C85.0459 92.9607 83.5299 93.5541 82.2605 93.1593C81.2303 92.8388 80.87 92.1846 81.1776 91.1958C81.411 90.4454 82.0499 89.3675 83.0916 87.9634C82.8165 88.1997 82.6441 88.2519 82.5745 88.1201C82.5049 87.9883 82.5198 87.8568 82.6205 87.7283L83.4072 86.9491C83.9795 86.343 84.3759 85.6821 84.5977 84.9691C84.8201 84.2542 84.8029 83.7865 84.5501 83.5675C85.7104 83.7275 86.3819 83.8414 86.5633 83.9064C86.7442 83.9735 86.835 84.086 86.8345 84.2478C86.834 84.4097 86.8069 84.5806 86.7499 84.7637C86.4025 85.8805 85.7014 87.1097 84.6491 88.45C83.5968 89.7903 82.9882 90.7221 82.8258 91.2441C82.6635 91.766 82.6522 92.0952 82.7931 92.2276C82.9335 92.362 83.0848 92.4544 83.2508 92.5061C83.7293 92.6549 84.3906 92.4393 85.2371 91.858C86.0837 91.2768 87.0436 90.3311 88.1181 89.0171C88.0436 88.3502 88.0756 87.7942 88.2153 87.3451C88.355 86.8961 88.5341 86.5154 88.7533 86.2013C89.4082 85.2601 90.1363 84.7737 90.9323 84.7383C91.0958 84.7287 91.2428 84.7442 91.3713 84.7842C91.6665 84.8738 91.7695 85.0657 91.6782 85.3592Z" fill="white"/>
<path d="M91.1144 91.0616C90.6638 91.6041 90.3184 92.2613 90.0795 93.0295C89.9196 93.5435 89.908 93.9849 90.043 94.3596C90.1781 94.7343 90.4577 94.9854 90.8809 95.117C92.5536 95.6374 94.5592 94.5439 96.8943 91.8334C97.1141 91.5799 97.3102 91.5005 97.4824 91.5951C97.55 91.6356 97.5729 91.6945 97.5502 91.7674C97.5276 91.8403 97.1705 92.2563 96.4803 93.018C95.7908 93.7777 95.148 94.3663 94.5539 94.7842C93.2178 95.7748 91.8594 96.0565 90.4793 95.6272C89.7438 95.3984 89.1931 94.9658 88.8253 94.3286C88.4594 93.692 88.4026 92.9615 88.6593 92.1362C88.916 91.311 89.3857 90.498 90.0685 89.6973C90.7519 88.8946 91.5575 88.2011 92.4858 87.615C93.4141 87.0289 94.3778 86.6914 95.3736 86.5994C95.8537 86.5479 96.2879 86.5814 96.6734 86.7013C97.059 86.8212 97.3845 87.0435 97.6467 87.3648C97.8795 87.718 97.9475 88.0502 97.8501 88.3634C97.5082 89.4624 96.5181 90.3101 94.8796 90.9065C94.3775 91.0916 93.721 91.1941 92.9083 91.2135C92.1001 91.2321 91.5 91.1816 91.1144 91.0616ZM97.1172 88.1052C97.2311 87.7388 97.1398 87.5095 96.8472 87.4185C96.3311 87.258 95.3534 87.6473 93.9122 88.5858C93.0478 89.1615 92.2284 89.8507 91.4534 90.6551C91.7658 90.7523 92.2549 90.7834 92.922 90.7512C93.5877 90.7163 94.1984 90.5866 94.7533 90.3574C96.032 89.809 96.8207 89.0585 97.1172 88.1052Z" fill="white"/>
<path d="M115.894 92.6193C116.287 91.3549 115.887 90.5369 114.69 90.1648C114.524 90.1131 114.318 90.0642 114.071 90.0173C113.823 89.9705 113.675 89.8597 113.63 89.6837C113.544 89.4367 113.826 89.3732 114.476 89.4953C114.709 89.5268 114.934 89.5773 115.155 89.6462C116.221 89.9777 116.806 90.663 116.907 91.6988C116.953 92.1345 116.884 92.6508 116.699 93.2456C116.514 93.8404 116.025 94.5069 115.229 95.2445C113.82 96.5949 112.026 97.3717 109.843 97.5784C109.112 97.6536 108.404 97.5822 107.714 97.3676C107.024 97.1529 106.366 96.7582 105.739 96.1808C104.577 95.1175 103.964 93.7495 103.897 92.0826C103.878 91.433 104.006 90.665 104.283 89.7767C104.559 88.8884 105.157 87.8432 106.075 86.6425C108.043 84.3404 110.621 82.6604 113.814 81.6057C117.236 80.4605 120.162 80.2645 122.59 81.0198C124.65 81.6606 125.772 82.9146 125.959 84.7808C126.049 85.593 125.937 86.5023 125.624 87.5107C125.521 87.8396 125.398 88.1748 125.252 88.5098C124.573 90.046 123.527 91.721 122.115 93.5328C121.878 93.8415 121.741 94.0536 121.704 94.1737C121.666 94.2939 121.675 94.3616 121.731 94.3788C121.816 94.4248 122.034 94.283 122.379 93.9475C124.509 91.8968 126.697 90.1472 128.944 88.6947C129.677 88.2207 130.483 87.8967 131.363 87.7298C132.328 87.5483 133.136 87.5577 133.789 87.7607C134.441 87.9636 134.883 88.3625 135.111 88.956C135.34 89.5501 135.331 90.2408 135.086 91.0286C134.51 92.88 132.823 95.74 130.026 99.6118C129.464 100.381 129.109 100.873 128.962 101.089C131.174 99.2258 133.843 97.2478 136.965 95.1535C140.086 93.0611 142.601 92.0291 144.508 92.0607C144.849 92.0673 145.141 92.1061 145.38 92.1805C146.078 92.3976 146.42 92.8865 146.408 93.6451C146.407 93.9062 146.358 94.1936 146.262 94.5048C145.971 95.4384 145.23 96.5254 144.038 97.762C141.595 100.298 139.821 102.369 138.717 103.974C137.232 106.085 136.357 107.571 136.09 108.432C135.822 109.293 135.682 110.033 135.672 110.652C135.649 111.891 136.346 112.731 137.762 113.171C137.835 113.194 137.989 113.237 138.221 113.299C138.454 113.36 138.569 113.441 138.568 113.543C138.568 113.642 138.477 113.704 138.297 113.731C138.118 113.755 137.95 113.744 137.794 113.695C137.638 113.646 137.517 113.598 137.431 113.552C134.616 112.354 133.624 110.419 134.456 107.744C134.758 106.773 135.299 105.732 136.079 104.618C136.859 103.504 137.49 102.661 137.97 102.087C138.741 101.163 140.317 99.3717 142.696 96.7159C143.551 95.7161 144.074 94.9151 144.262 94.3105C144.45 93.7058 144.287 93.3245 143.771 93.164C143.053 92.9407 141.712 93.3272 139.749 94.3239C138.737 94.8535 137.609 95.5309 136.362 96.3593C135.115 97.1877 133.179 98.7152 130.55 100.941C127.921 103.167 126.191 104.774 125.359 105.762C124.629 106.619 123.913 106.939 123.215 106.721C122.719 106.567 122.479 106.3 122.496 105.925C122.487 105.76 122.522 105.646 122.603 105.582C122.684 105.517 122.953 105.264 123.413 104.826C123.873 104.386 124.349 103.922 124.844 103.432C125.339 102.943 125.958 102.263 126.704 101.389C127.449 100.517 128.17 99.6132 128.862 98.6837C130.548 96.3739 131.973 93.9053 133.134 91.2726C133.269 90.9731 133.408 90.5887 133.553 90.1219C133.698 89.6551 133.689 89.2441 133.527 88.8934C133.364 88.5402 133.145 88.3231 132.869 88.237C131.967 87.9565 130.764 88.3253 129.256 89.3447C127.221 90.7011 125.387 92.0857 123.759 93.4976C122.13 94.909 120.84 96.1213 119.89 97.1308C118.94 98.1422 117.822 99.3669 116.539 100.806C115.255 102.245 114.571 103.013 114.492 103.107C114.412 103.203 114.304 103.321 114.17 103.459C114.036 103.598 113.918 103.732 113.818 103.861C113.413 104.318 112.816 104.424 112.025 104.178C111.564 104.035 111.363 103.81 111.416 103.507C111.434 103.452 111.464 103.39 111.504 103.323C113.3 101.831 115.522 99.4185 118.173 96.0846C121.542 91.8684 123.568 88.6599 124.252 86.4619C125.067 83.8423 124.389 82.1949 122.22 81.5202C120.822 81.0854 118.852 81.207 116.312 81.8838C113.773 82.5606 111.478 83.7262 109.43 85.3791C108.622 86.0328 107.961 86.7 107.445 87.384C106.528 88.6454 105.941 89.6897 105.684 90.513C104.949 92.8765 105.256 94.6804 106.604 95.9229C107.07 96.3702 107.589 96.6808 108.159 96.8579C110.146 97.476 112.106 96.9107 114.042 95.1627C115.027 94.2701 115.643 93.4269 115.894 92.6193Z" fill="white"/>
<path d="M147.193 102.597C148.535 103.015 148.945 104.067 148.421 105.753C148.181 106.523 147.723 107.283 147.044 108.038C146.157 109.069 145.051 109.908 143.718 110.559C143.815 111.092 144.175 111.455 144.802 111.65C145.298 111.804 145.844 111.701 146.441 111.345C147.169 110.949 147.72 110.572 148.092 110.217C148.465 109.862 148.738 109.599 148.911 109.433C149.084 109.266 149.317 109.021 149.608 108.699C149.899 108.377 150.077 108.182 150.138 108.11C150.201 108.039 150.277 108.017 150.37 108.046C150.56 108.086 150.633 108.177 150.587 108.325C150.57 108.38 150.532 108.44 150.472 108.501L150.186 108.833C149.996 109.055 149.856 109.212 149.766 109.305C149.676 109.399 149.518 109.565 149.294 109.807C149.067 110.047 148.878 110.235 148.726 110.369C148.574 110.503 148.367 110.678 148.108 110.9C147.848 111.122 147.624 111.292 147.434 111.414C147.244 111.536 147.017 111.667 146.753 111.805C146.489 111.943 146.246 112.038 146.028 112.092C145.482 112.224 145.008 112.226 144.603 112.1C143.848 111.865 143.335 111.444 143.06 110.836C142.02 111.195 141.142 111.263 140.424 111.04C139.082 110.622 138.672 109.57 139.196 107.884C139.436 107.114 139.894 106.353 140.573 105.599C141.523 104.488 142.639 103.641 143.921 103.055C145.2 102.47 146.291 102.316 147.193 102.597ZM147.232 103.544C146.735 103.39 146.044 103.536 145.159 103.984C144.273 104.432 143.387 105.142 142.5 106.11C141.445 107.229 140.788 108.211 140.527 109.052C140.264 109.895 140.456 110.416 141.098 110.616C141.557 110.759 142.15 110.671 142.873 110.354C142.71 109.841 142.703 109.346 142.852 108.87C143.134 108.094 143.577 107.799 144.184 107.988C144.423 108.063 144.595 108.207 144.7 108.421C144.805 108.635 144.837 108.809 144.794 108.947C144.752 109.085 144.69 109.221 144.607 109.355C145.061 108.996 145.622 108.455 146.289 107.738C147.039 106.947 147.555 106.103 147.834 105.205C148.112 104.311 147.912 103.756 147.232 103.544Z" fill="white"/>
<path d="M164.276 108.574C160.795 111.852 158.876 114.068 158.517 115.222C158.358 115.734 158.451 116.046 158.801 116.155C159.242 116.292 159.851 116.121 160.625 115.638C161.814 114.863 162.958 113.843 164.059 112.576C164.249 112.354 164.391 112.288 164.483 112.377C164.576 112.467 164.609 112.557 164.58 112.65C164.551 112.742 164.387 112.942 164.092 113.252C163.794 113.561 163.556 113.809 163.377 113.993C163.198 114.179 162.824 114.525 162.252 115.03C161.681 115.535 161.216 115.893 160.86 116.104C160.502 116.315 160.072 116.497 159.57 116.654C159.069 116.809 158.556 116.805 158.03 116.641C157.506 116.478 157.139 116.083 156.931 115.455C156.839 115.165 156.857 114.814 156.985 114.402C157.113 113.991 157.36 113.519 157.727 112.992C158.094 112.462 158.896 111.668 160.133 110.605C160.437 110.339 160.621 110.109 160.681 109.916C160.741 109.723 160.619 109.581 160.316 109.487C160.011 109.392 159.352 109.589 158.333 110.076C157.314 110.562 156.174 111.292 154.912 112.267C153.651 113.242 152.82 114.079 152.423 114.778C152.11 114.681 151.919 114.481 151.852 114.179C151.783 113.877 151.779 113.634 151.836 113.451C152.069 112.7 153.02 111.428 154.686 109.635C155.232 109.042 155.555 108.624 155.65 108.382C155.745 108.139 155.754 108.001 155.673 107.967C155.593 107.932 155.468 107.929 155.299 107.957C154.917 108.02 154.286 108.264 153.406 108.694C151.755 109.466 149.929 110.858 147.933 112.87C147.778 113.042 147.624 113.13 147.474 113.133C147.321 113.135 147.04 113.084 146.629 112.976C146.218 112.868 145.939 112.831 145.785 112.865C146.315 112.328 147.268 111.306 148.643 109.805C151.113 107.117 152.671 105.612 153.316 105.29C153.606 105.138 153.942 105.124 154.328 105.244C154.401 105.267 154.582 105.353 154.868 105.503C155.155 105.652 155.375 105.732 155.535 105.741C154.741 105.895 153.092 107.27 150.591 109.869C151.785 109.076 152.623 108.572 153.103 108.36C153.583 108.149 153.939 107.987 154.174 107.879C154.409 107.771 154.591 107.687 154.72 107.628C154.849 107.569 155.039 107.481 155.285 107.367C155.533 107.254 155.72 107.17 155.845 107.12C155.972 107.069 156.15 106.999 156.379 106.91C156.608 106.822 156.781 106.77 156.896 106.756C157.011 106.742 157.174 106.706 157.382 106.65C157.59 106.594 157.738 106.579 157.819 106.604C157.902 106.63 158.024 106.642 158.184 106.642C158.345 106.643 158.443 106.688 158.476 106.778C158.798 107.041 158.911 107.326 158.814 107.637C158.728 107.913 158.196 108.521 157.219 109.461C156.24 110.403 155.602 111.028 155.304 111.337C156.426 110.582 157.457 109.993 158.395 109.57C159.333 109.149 160.387 108.818 161.563 108.581C162.736 108.343 163.554 108.295 164.012 108.438C164.127 108.467 164.212 108.515 164.276 108.574Z" fill="white"/>
</g>
<defs>
<clipPath id="clip0">
<rect width="175" height="156" fill="white" transform="translate(46.3345) rotate(17.2785)"/>
</clipPath>
</defs>
</svg>
