<svg width="259" height="242" viewBox="0 0 259 242" fill="none" xmlns="http://www.w3.org/2000/svg">
<g clip-path="url(#clip0)">
<path d="M146.992 54.3929C146.961 54.6393 146.929 54.8857 146.9 55.1303C146.746 54.6922 146.648 54.2243 146.426 53.8232C144.752 50.7807 143.076 47.7375 141.359 44.7201C133.964 31.7317 123.593 22.0588 109.54 16.6192C97.604 11.9991 85.4963 11.5775 73.3331 15.688C56.1661 21.488 35.0367 40.0508 33.3798 69.5003C32.7542 80.613 34.3539 91.4311 37.3508 102.087C41.8388 118.05 48.9654 132.864 57.1547 147.211C70.5976 170.762 86.9906 192.227 104.013 213.249C104.546 213.907 104.987 213.823 105.638 213.574C125.287 206.102 144.704 198.085 163.412 188.472C178.77 180.579 193.58 171.787 207.112 160.995C217.459 152.744 226.81 143.549 234.041 132.377C239.061 124.623 242.665 116.282 244.248 107.142C246.142 96.201 244.881 85.5446 240.927 75.2235C233.132 54.8738 218.328 43.1484 196.726 40.3169C182.731 38.4832 169.744 41.9049 157.593 48.8807C154.141 50.8601 150.53 52.5627 146.992 54.3929Z" fill="#FFCDB6"/>
<path d="M146.992 54.3928C150.53 52.5627 154.141 50.8601 157.593 48.8807C169.744 41.9049 182.731 38.4832 196.726 40.3169C218.328 43.1484 233.132 54.8738 240.927 75.2259C244.88 85.5471 246.144 96.2041 244.247 107.145C242.665 116.285 239.058 124.622 234.041 132.379C226.809 143.551 217.456 152.746 207.112 160.997C193.58 171.79 178.769 180.581 163.411 188.474C144.704 198.088 125.288 206.105 105.638 213.576C104.987 213.823 104.546 213.907 104.013 213.252C86.99 192.23 70.597 170.764 57.154 147.214C48.9623 132.866 41.8381 118.052 37.3502 102.09C34.3539 91.4311 32.7535 80.6155 33.3792 69.5028C35.0367 40.0508 56.1661 21.488 73.3331 15.688C85.4963 11.5775 97.6065 11.9997 109.54 16.6192C123.595 22.0595 133.964 31.7317 141.359 44.7201C143.076 47.7375 144.752 50.7807 146.426 53.8232C146.648 54.2243 146.743 54.694 146.9 55.1303C146.931 54.8863 146.963 54.6399 146.992 54.3928Z" fill="#FFCDB6"/>
<path d="M99.9811 85.3285C99.4495 87.3123 98.2467 89.2161 96.3764 91.0357C94.503 92.8571 92.2162 94.2654 89.5097 95.2643C86.8032 96.2632 84.1863 96.6423 81.653 96.405C79.5081 98.8369 77.9749 100.529 77.0585 101.482L76.027 102.451C80.2538 104.782 83.5459 107.486 85.9058 110.562C87.1031 112.129 87.7381 113.829 87.8119 115.657C87.8552 116.596 87.7912 117.375 87.6263 117.991C87.4614 118.606 87.2017 119.094 86.8503 119.452C86.4965 119.809 86.1381 120.026 85.776 120.099C85.4138 120.173 85.1636 120.193 85.026 120.156C84.8884 120.119 84.8347 120.044 84.8656 119.929C84.8965 119.814 85.1167 119.513 85.5295 119.024C85.9422 118.535 86.2479 117.916 86.4496 117.163C86.6513 116.41 86.715 115.533 86.6399 114.536C86.5649 113.538 86.195 112.54 85.5301 111.542C84.8652 110.544 83.8536 109.502 82.4904 108.417C81.1273 107.332 79.9192 106.493 78.8651 105.905C77.8109 105.318 76.3822 104.586 74.583 103.712C71.9119 105.906 69.3914 107.223 67.0192 107.662C65.5962 107.94 64.4002 107.951 63.4296 107.691C62.4589 107.431 61.6483 107.006 60.9977 106.416C59.8662 105.43 59.4752 104.284 59.8234 102.985C60.1716 101.685 61.3348 100.775 63.3104 100.253C65.5572 99.6325 68.3396 99.7657 71.6546 100.654C72.8439 100.973 73.8935 101.351 74.805 101.792C76.2624 100.472 78.0516 98.5912 80.1744 96.1534C80.0368 96.1165 79.9115 96.0829 79.796 96.052C78.356 95.6661 77.0836 95.0676 75.9782 94.2589C74.8727 93.4502 74.0639 92.537 73.5517 91.5193C72.878 90.1902 72.7228 88.8529 73.0835 87.5067C73.2727 86.8005 73.6547 86.0828 74.2287 85.3561C74.8026 84.6295 75.8142 84.0095 77.2646 83.4914C78.7144 82.9758 80.434 82.7506 82.4246 82.8214C82.7403 82.8324 83.0002 82.8653 83.2066 82.9206C83.413 82.9759 83.5232 83.0659 83.5366 83.193C83.5524 83.3207 83.4314 83.3987 83.1785 83.4282C82.9257 83.4577 82.6444 83.4559 82.3345 83.4228C81.3207 83.2747 80.3186 83.3583 79.3261 83.6811C77.6129 84.2261 76.2106 85.3905 75.1189 87.1743C74.8591 87.5935 74.6727 88.014 74.5597 88.4358C74.4467 88.8575 74.3893 89.3862 74.3925 90.0231C74.3932 90.6593 74.5712 91.3614 74.9319 92.1283C75.2896 92.897 75.8846 93.5268 76.7219 94.0193C77.5567 94.511 78.312 94.8475 78.9878 95.0285C79.6611 95.2089 80.2944 95.3419 80.8829 95.426L85.7593 88.8847C89.1505 84.2688 92.4009 81.7415 95.508 81.3019C96.3198 81.2014 97.0718 81.2453 97.7697 81.4323C98.4676 81.6192 99.0689 82.0195 99.579 82.6319C100.089 83.2443 100.281 83.8765 100.156 84.529C100.107 84.8102 100.049 85.0759 99.9811 85.3285ZM73.3032 103.151C72.2497 102.601 71.1289 102.164 69.942 101.846C68.7527 101.527 67.4854 101.371 66.1359 101.375C63.3232 101.355 61.5198 101.912 60.727 103.043C60.575 103.246 60.4705 103.45 60.4153 103.656C60.2563 104.249 60.453 104.822 61.0036 105.372C61.5543 105.922 62.2188 106.302 62.9953 106.51C64.0692 106.798 65.3159 106.814 66.7306 106.557C68.8714 106.155 71.0613 105.021 73.3032 103.151ZM98.5325 84.9745C98.7645 84.1089 98.4802 83.5675 97.6816 83.3535C96.5168 83.0414 94.8269 83.6767 92.6143 85.26C90.8776 86.5319 89.1007 88.1505 87.2872 90.122C85.4737 92.0934 83.8377 93.9232 82.3799 95.6089C85.7465 95.7541 89.0758 94.7801 92.3665 92.692C95.6573 90.6038 97.7132 88.0323 98.5325 84.9745Z" fill="white"/>
<path d="M95.9475 99.2811C97.6161 99.7282 98.1703 101.002 97.6079 103.101C97.351 104.059 96.8257 105.017 96.0282 105.978C94.9893 107.29 93.6709 108.377 92.0667 109.243C92.211 109.894 92.6704 110.322 93.4494 110.531C94.0662 110.696 94.7314 110.543 95.4467 110.075C96.3216 109.553 96.9799 109.061 97.4205 108.607C97.8611 108.152 98.1831 107.815 98.3877 107.602C98.5924 107.388 98.8659 107.075 99.2076 106.665C99.5494 106.254 99.7583 106.005 99.8301 105.914C99.9044 105.824 99.9968 105.793 100.112 105.824C100.347 105.864 100.441 105.973 100.392 106.157C100.374 106.226 100.33 106.301 100.259 106.379L99.9242 106.802C99.7012 107.083 99.5369 107.284 99.4313 107.403C99.3257 107.522 99.1396 107.735 98.8754 108.042C98.6088 108.349 98.3864 108.589 98.2059 108.762C98.0254 108.934 97.7804 109.16 97.4722 109.446C97.1615 109.73 96.8969 109.951 96.6697 110.111C96.4425 110.271 96.1701 110.442 95.8524 110.625C95.5347 110.808 95.242 110.937 94.9767 111.014C94.3121 111.203 93.7311 111.229 93.2273 111.094C92.2911 110.843 91.6383 110.35 91.2715 109.616C90.0121 110.109 88.9376 110.236 88.0456 109.997C86.3771 109.55 85.8228 108.277 86.3853 106.178C86.6422 105.219 87.1675 104.261 87.9649 103.3C89.0783 101.887 90.4073 100.79 91.9528 100.006C93.4952 99.2232 94.827 98.9809 95.9475 99.2811ZM96.0414 100.444C95.4247 100.279 94.5826 100.492 93.5172 101.087C92.4518 101.682 91.3978 102.598 90.3558 103.833C89.1145 105.261 88.3557 106.501 88.0751 107.548C87.7939 108.597 88.0538 109.23 88.8525 109.444C89.4226 109.596 90.1467 109.459 91.0194 109.033C90.7938 108.41 90.7618 107.803 90.9208 107.209C91.2303 106.241 91.7598 105.857 92.5142 106.059C92.8115 106.139 93.0297 106.308 93.1686 106.566C93.3076 106.824 93.3559 107.036 93.3099 107.208C93.2639 107.38 93.1945 107.55 93.0992 107.719C93.6399 107.254 94.3021 106.562 95.0871 105.647C95.9687 104.638 96.5617 103.575 96.8613 102.456C97.1596 101.343 96.8843 100.67 96.0414 100.444Z" fill="white"/>
<path d="M110.304 103.165L109.967 103.734C107.83 107.049 106.045 109.406 104.616 110.808C102.528 112.84 100.695 113.645 99.1179 113.222C97.8376 112.879 97.3636 112.092 97.6934 110.861C97.9438 109.927 98.6761 108.57 99.8874 106.792C99.5609 107.096 99.3518 107.169 99.26 107.01C99.1682 106.851 99.1801 106.689 99.2975 106.526L100.226 105.529C100.899 104.755 101.354 103.923 101.592 103.035C101.83 102.145 101.787 101.571 101.466 101.314C102.898 101.454 103.728 101.56 103.954 101.631C104.179 101.705 104.296 101.839 104.303 102.038C104.31 102.237 104.285 102.448 104.224 102.676C103.852 104.067 103.05 105.613 101.823 107.313C100.596 109.013 99.8936 110.189 99.7195 110.839C99.5454 111.489 99.5474 111.894 99.7269 112.05C99.9057 112.208 100.096 112.314 100.302 112.37C100.897 112.529 101.698 112.231 102.71 111.475C103.721 110.718 104.854 109.508 106.11 107.839C105.986 107.022 105.998 106.337 106.148 105.778C106.298 105.219 106.5 104.742 106.753 104.345C107.512 103.155 108.383 102.521 109.358 102.438C109.558 102.418 109.74 102.43 109.899 102.473C110.266 102.569 110.402 102.799 110.304 103.165Z" fill="white"/>
<path d="M109.887 110.205C109.36 110.894 108.968 111.719 108.712 112.675C108.54 113.315 108.547 113.859 108.731 114.313C108.915 114.767 109.27 115.062 109.796 115.203C111.875 115.76 114.285 114.316 117.021 110.868C117.278 110.545 117.515 110.438 117.731 110.545C117.816 110.592 117.847 110.663 117.823 110.754C117.799 110.845 117.38 111.374 116.57 112.345C115.76 113.313 114.999 114.068 114.29 114.612C112.697 115.896 111.043 116.309 109.328 115.85C108.414 115.605 107.717 115.1 107.234 114.335C106.755 113.57 106.649 112.675 106.925 111.647C107.2 110.62 107.738 109.597 108.537 108.579C109.337 107.558 110.293 106.665 111.404 105.899C112.516 105.132 113.683 104.669 114.901 104.507C115.488 104.42 116.023 104.44 116.502 104.568C116.981 104.696 117.391 104.953 117.729 105.336C118.032 105.758 118.131 106.164 118.027 106.553C117.66 107.922 116.485 109.013 114.503 109.827C113.895 110.08 113.094 110.238 112.097 110.303C111.106 110.365 110.366 110.333 109.887 110.205ZM117.114 106.272C117.237 105.816 117.113 105.539 116.75 105.441C116.108 105.269 114.927 105.796 113.203 107.022C112.169 107.772 111.196 108.66 110.284 109.688C110.672 109.792 111.274 109.806 112.091 109.733C112.907 109.658 113.651 109.468 114.321 109.159C115.864 108.421 116.796 107.459 117.114 106.272Z" fill="white"/>
<path d="M140.386 110.894C140.808 109.32 140.276 108.334 138.79 107.935C138.583 107.88 138.328 107.83 138.022 107.785C137.715 107.739 137.528 107.61 137.465 107.396C137.347 107.097 137.691 107.005 138.494 107.123C138.782 107.15 139.06 107.201 139.335 107.275C140.66 107.63 141.411 108.443 141.585 109.712C141.663 110.245 141.603 110.884 141.404 111.624C141.206 112.365 140.637 113.209 139.696 114.155C138.032 115.885 135.866 116.929 133.196 117.291C132.303 117.42 131.43 117.367 130.572 117.137C129.714 116.907 128.888 116.455 128.09 115.776C126.613 114.526 125.794 112.874 125.631 110.828C125.576 110.03 125.696 109.079 125.993 107.973C126.289 106.867 126.973 105.552 128.042 104.03C130.346 101.102 133.431 98.9091 137.3 97.4542C141.447 95.8767 145.029 95.491 148.047 96.2995C150.607 96.9856 152.045 98.472 152.365 100.758C152.515 101.752 152.421 102.875 152.085 104.131C151.975 104.54 151.84 104.959 151.677 105.378C150.917 107.3 149.714 109.412 148.069 111.709C147.793 112.101 147.634 112.368 147.594 112.518C147.554 112.667 147.568 112.75 147.637 112.769C147.744 112.821 148.005 112.636 148.412 112.206C150.928 109.579 153.53 107.32 156.219 105.423C157.096 104.803 158.069 104.365 159.142 104.116C160.318 103.845 161.311 103.817 162.122 104.034C162.933 104.252 163.495 104.72 163.803 105.439C164.113 106.158 164.135 107.008 163.873 107.988C163.255 110.293 161.321 113.894 158.075 118.793C157.422 119.766 157.01 120.389 156.84 120.662C159.466 118.262 162.647 115.697 166.378 112.968C170.109 110.24 173.148 108.847 175.491 108.791C175.909 108.783 176.269 108.816 176.567 108.896C177.434 109.128 177.878 109.712 177.899 110.646C177.911 110.967 177.865 111.323 177.761 111.71C177.45 112.872 176.592 114.246 175.189 115.825C172.312 119.065 170.234 121.699 168.955 123.727C167.234 126.396 166.232 128.267 165.945 129.338C165.658 130.41 165.523 131.328 165.54 132.089C165.571 133.614 166.468 134.611 168.228 135.083C168.318 135.107 168.509 135.153 168.797 135.217C169.086 135.281 169.232 135.376 169.235 135.5C169.239 135.622 169.131 135.703 168.912 135.744C168.693 135.783 168.486 135.778 168.292 135.726C168.098 135.674 167.947 135.62 167.84 135.568C164.325 134.234 163.014 131.904 163.906 128.574C164.23 127.365 164.844 126.058 165.748 124.649C166.652 123.241 167.386 122.173 167.947 121.443C168.85 120.269 170.698 117.989 173.491 114.605C174.492 113.333 175.095 112.323 175.297 111.57C175.499 110.817 175.28 110.356 174.638 110.185C173.746 109.946 172.118 110.487 169.757 111.81C168.539 112.511 167.187 113.4 165.697 114.48C164.206 115.56 161.902 117.534 158.782 120.402C155.662 123.269 153.616 125.33 152.642 126.586C151.786 127.676 150.924 128.105 150.056 127.872C149.439 127.707 149.132 127.39 149.134 126.929C149.115 126.726 149.153 126.584 149.249 126.502C149.345 126.417 149.664 126.093 150.207 125.531C150.75 124.967 151.312 124.374 151.896 123.747C152.48 123.121 153.208 122.254 154.082 121.142C154.954 120.033 155.796 118.887 156.601 117.709C158.559 114.786 160.189 111.68 161.488 108.385C161.639 108.01 161.791 107.531 161.947 106.949C162.102 106.368 162.072 105.863 161.856 105.44C161.638 105.014 161.359 104.758 161.015 104.666C159.895 104.365 158.435 104.878 156.633 106.206C154.2 107.975 152.015 109.768 150.085 111.585C148.153 113.401 146.627 114.955 145.51 116.244C144.393 117.534 143.079 119.096 141.574 120.929C140.066 122.762 139.264 123.74 139.171 123.86C139.078 123.982 138.951 124.132 138.793 124.308C138.635 124.486 138.497 124.657 138.38 124.82C137.905 125.402 137.177 125.562 136.194 125.298C135.622 125.145 135.364 124.879 135.414 124.503C135.433 124.435 135.467 124.357 135.513 124.272C137.646 122.349 140.258 119.273 143.351 115.042C147.285 109.691 149.617 105.646 150.35 102.909C151.224 99.6477 150.312 97.6555 147.616 96.9332C145.879 96.4677 143.466 96.7148 140.381 97.6726C137.295 98.6305 134.534 100.177 132.1 102.311C131.14 103.155 130.361 104.008 129.76 104.874C128.694 106.471 128.024 107.784 127.749 108.809C126.961 111.752 127.424 113.955 129.14 115.416C129.733 115.943 130.386 116.299 131.093 116.489C133.563 117.15 135.943 116.358 138.235 114.113C139.401 112.967 140.116 111.899 140.386 110.894Z" fill="white"/>
<path d="M179.295 121.614C180.964 122.061 181.518 123.335 180.956 125.434C180.699 126.392 180.173 127.35 179.376 128.311C178.337 129.623 177.019 130.71 175.414 131.576C175.559 132.227 176.018 132.655 176.797 132.864C177.414 133.029 178.079 132.876 178.794 132.408C179.669 131.886 180.328 131.394 180.768 130.94C181.209 130.485 181.531 130.148 181.735 129.935C181.94 129.721 182.214 129.408 182.555 128.998C182.897 128.587 183.106 128.338 183.178 128.247C183.252 128.157 183.344 128.126 183.46 128.157C183.694 128.197 183.789 128.306 183.74 128.49C183.721 128.559 183.677 128.634 183.606 128.712L183.272 129.135C183.049 129.417 182.885 129.617 182.779 129.736C182.673 129.855 182.487 130.068 182.223 130.375C181.956 130.682 181.734 130.922 181.554 131.095C181.373 131.267 181.128 131.493 180.82 131.779C180.512 132.064 180.245 132.284 180.017 132.444C179.79 132.604 179.518 132.775 179.2 132.958C178.882 133.141 178.59 133.27 178.324 133.347C177.66 133.536 177.079 133.562 176.575 133.427C175.636 133.176 174.986 132.683 174.619 131.949C173.36 132.442 172.285 132.569 171.393 132.33C169.725 131.883 169.17 130.61 169.733 128.511C169.99 127.552 170.515 126.594 171.313 125.633C172.426 124.22 173.755 123.123 175.3 122.339C176.843 121.556 178.175 121.314 179.295 121.614ZM179.389 122.777C178.772 122.612 177.93 122.825 176.865 123.42C175.799 124.015 174.745 124.931 173.703 126.166C172.462 127.594 171.703 128.834 171.423 129.881C171.142 130.93 171.401 131.563 172.2 131.777C172.77 131.929 173.494 131.792 174.367 131.366C174.141 130.743 174.109 130.136 174.268 129.542C174.578 128.574 175.107 128.19 175.862 128.392C176.159 128.472 176.377 128.641 176.516 128.899C176.655 129.157 176.704 129.369 176.658 129.541C176.612 129.713 176.542 129.883 176.447 130.052C176.988 129.587 177.65 128.895 178.435 127.98C179.316 126.971 179.909 125.908 180.209 124.789C180.507 123.676 180.234 123.004 179.389 122.777Z" fill="white"/>
<path d="M200.558 128.118C196.443 132.322 194.194 135.141 193.809 136.578C193.638 137.216 193.768 137.595 194.203 137.712C194.751 137.858 195.49 137.617 196.418 136.986C197.84 135.974 199.195 134.663 200.485 133.05C200.708 132.768 200.879 132.68 200.996 132.785C201.115 132.891 201.16 133 201.129 133.115C201.098 133.23 200.906 133.484 200.558 133.879C200.207 134.274 199.928 134.591 199.717 134.826C199.506 135.064 199.063 135.508 198.386 136.157C197.709 136.806 197.155 137.27 196.728 137.547C196.298 137.824 195.78 138.068 195.171 138.286C194.563 138.502 193.933 138.522 193.279 138.347C192.628 138.173 192.158 137.705 191.873 136.943C191.746 136.591 191.751 136.158 191.888 135.646C192.026 135.133 192.306 134.541 192.732 133.874C193.156 133.205 194.103 132.189 195.57 130.821C195.93 130.479 196.146 130.187 196.21 129.947C196.274 129.706 196.117 129.538 195.741 129.437C195.362 129.336 194.562 129.61 193.334 130.259C192.107 130.908 190.743 131.862 189.241 133.123C187.739 134.384 186.759 135.454 186.305 136.334C185.917 136.23 185.672 135.993 185.575 135.626C185.476 135.258 185.459 134.959 185.52 134.731C185.771 133.796 186.877 132.185 188.835 129.897C189.478 129.142 189.854 128.612 189.959 128.309C190.064 128.006 190.067 127.836 189.967 127.798C189.867 127.758 189.713 127.762 189.507 127.804C189.041 127.9 188.278 128.232 187.219 128.804C185.228 129.835 183.055 131.636 180.701 134.209C180.518 134.428 180.334 134.545 180.149 134.556C179.962 134.566 179.615 134.518 179.105 134.405C178.595 134.292 178.251 134.26 178.064 134.31C178.688 133.623 179.808 132.32 181.425 130.406C184.326 126.978 186.168 125.051 186.943 124.623C187.292 124.422 187.704 124.388 188.184 124.516C188.274 124.54 188.501 124.638 188.859 124.807C189.219 124.977 189.493 125.064 189.69 125.067C188.722 125.296 186.765 127.069 183.818 130.387C185.246 129.354 186.251 128.692 186.83 128.408C187.409 128.125 187.838 127.909 188.122 127.764C188.406 127.619 188.625 127.507 188.781 127.428C188.936 127.349 189.165 127.231 189.461 127.079C189.76 126.928 189.985 126.815 190.138 126.748C190.291 126.679 190.506 126.584 190.783 126.464C191.06 126.343 191.269 126.271 191.409 126.248C191.55 126.225 191.748 126.173 192.001 126.094C192.254 126.014 192.435 125.989 192.536 126.016C192.639 126.044 192.789 126.052 192.986 126.045C193.183 126.037 193.306 126.088 193.351 126.198C193.759 126.504 193.911 126.85 193.807 127.237C193.715 127.58 193.092 128.354 191.937 129.559C190.781 130.765 190.027 131.565 189.676 131.96C191.017 130.976 192.254 130.201 193.386 129.634C194.517 129.07 195.796 128.611 197.228 128.261C198.657 127.911 199.658 127.811 200.228 127.964C200.37 127.994 200.477 128.049 200.558 128.118Z" fill="white"/>
</g>
<defs>
<clipPath id="clip0">
<rect width="215" height="192" fill="white" transform="translate(50.5095 0.448059) rotate(15)"/>
</clipPath>
</defs>
</svg>
