<svg width="344" height="344" viewBox="0 0 344 344" fill="none" xmlns="http://www.w3.org/2000/svg">
<circle cx="172" cy="172" r="172" fill="#424242"/>
<path d="M188.328 217.824C188.328 226.848 190.344 233.088 194.376 236.544C198.6 239.808 205.8 241.44 215.976 241.44V247.488C195.24 246.72 181.992 246.336 176.232 246.336C170.856 246.336 158.376 246.624 138.792 247.2L131.88 247.488V241.44C142.056 241.44 149.64 239.712 154.632 236.256C159.816 232.8 162.408 226.656 162.408 217.824V148.128C162.408 138.912 161.448 132.192 159.528 127.968C157.608 123.552 154.344 120.672 149.736 119.328C145.32 117.792 138.408 117.024 129 117.024V110.688C143.016 110.304 154.536 109.056 163.56 106.944C172.776 104.832 181.032 101.184 188.328 96V217.824Z" fill="#FFEEE6"/>
</svg>
