<svg width="344" height="344" viewBox="0 0 344 344" fill="none" xmlns="http://www.w3.org/2000/svg">
<circle cx="172" cy="172" r="172" fill="#424242"/>
<path d="M173.72 74C185.816 74 195.704 76.976 203.384 82.928C211.256 88.88 215.192 96.848 215.192 106.832C215.192 117.392 210.968 126.896 202.52 135.344C194.264 143.792 184.184 150.128 172.28 154.352C187.064 154.736 199.64 158.672 210.008 166.16C220.376 173.648 225.56 184.304 225.56 198.128C225.56 211.952 220.184 224.336 209.432 235.28C198.872 246.224 185.336 254.672 168.824 260.624C152.504 266.768 135.896 269.84 119 269.84V264.656C132.632 264.272 145.496 261.392 157.592 256.016C169.688 250.832 179.48 243.248 186.968 233.264C194.456 223.472 198.2 211.76 198.2 198.128C198.2 186.8 195.416 177.488 189.848 170.192C184.28 162.704 176.888 158.576 167.672 157.808C166.904 158.192 164.888 159.056 161.624 160.4C158.552 161.552 156.056 162.128 154.136 162.128C151.064 162.128 149.528 160.88 149.528 158.384C149.528 156.656 150.2 155.312 151.544 154.352C153.08 153.392 154.904 152.912 157.016 152.912C158.168 152.912 159.704 153.104 161.624 153.488C163.736 153.68 165.56 153.872 167.096 154.064C174.584 148.304 180.152 141.872 183.8 134.768C187.448 127.664 189.272 120.272 189.272 112.592C189.272 103.76 187.064 97.232 182.648 93.008C178.232 88.784 172.088 86.672 164.216 86.672C156.152 86.672 148.856 88.88 142.328 93.296C135.8 97.52 130.328 103.856 125.912 112.304L121.016 110C132.152 86 149.72 74 173.72 74Z" fill="#FFEEE6"/>
</svg>
