<svg width="344" height="344" viewBox="0 0 344 344" fill="none" xmlns="http://www.w3.org/2000/svg">
<circle cx="172" cy="172" r="172" fill="#424242"/>
<path d="M172.736 93C186.176 93 196.736 96.168 204.416 102.504C212.096 108.84 215.936 117.768 215.936 129.288C215.936 137.16 213.824 144.84 209.6 152.328C205.568 159.624 200.576 166.344 194.624 172.488C188.864 178.632 181.184 186.024 171.584 194.664C163.712 201.96 157.856 207.528 154.016 211.368C150.176 215.016 146.72 218.952 143.648 223.176H202.112C207.296 223.176 211.136 222.792 213.632 222.024C216.32 221.064 218.144 219.624 219.104 217.704C220.064 215.592 220.832 212.52 221.408 208.488H226.304C226.304 226.152 226.688 238.92 227.456 246.792C223.232 245.832 208.928 245.352 184.544 245.352H117.152V240.456C120.416 237 125.984 231.528 133.856 224.04C144.8 213.864 153.92 204.744 161.216 196.68C168.512 188.424 174.752 179.112 179.936 168.744C185.312 158.376 188 147.336 188 135.624C188 114.888 178.4 104.52 159.2 104.52C143.456 104.52 130.592 113.544 120.608 131.592L116 129C120.992 118.632 128.096 110.088 137.312 103.368C146.528 96.456 158.336 93 172.736 93Z" fill="#FFEEE6"/>
</svg>
